PathFileType	4	(X/Y/Z)	35_2_21_p1_0-405_filt_butterworth.trc
DataRate	CameraRate	NumFrames	NumMarkers	Units	OrigDataRate	OrigDataStartFrame	OrigNumFrames
59.0	59.0	7	27	m	59.0	50	405
Frame#	Time	RHip			RKnee			RAnkle			RBigToe			RSmallToe			RHeel			LHip			LKnee			LAnkle			LBigToe			LSmallToe			LHeel			Neck			Head			Nose			RShoulder			RElbow			RWrist			RThumb			RIndex			RPinky			LShoulder			LElbow			LWrist			LThumb			LIndex			LPinky			
		X1	Y1	Z1	X2	Y2	Z2	X3	Y3	Z3	X4	Y4	Z4	X5	Y5	Z5	X6	Y6	Z6	X7	Y7	Z7	X8	Y8	Z8	X9	Y9	Z9	X10	Y10	Z10	X11	Y11	Z11	X12	Y12	Z12	X13	Y13	Z13	X14	Y14	Z14	X15	Y15	Z15	X16	Y16	Z16	X17	Y17	Z17	X18	Y18	Z18	X19	Y19	Z19	X20	Y20	Z20	X21	Y21	Z21	X22	Y22	Z22	X23	Y23	Z23	X24	Y24	Z24	X25	Y25	Z25	X26	Y26	Z26	X27	Y27	Z27	
50	0.847457627118644	0.39163578553960193	0.6687367449311452	0.45241064591673136	0.38611596577001817	0.9022589038889965	0.8103005567205416	0.39292308508936086	1.157559997187188	1.1908971615318054	0.3510446036630565	0.981555830695243	1.294017121322363	0.41580073949716007	0.9899748752159343	1.2875122771623917	0.3625577094770051	1.2823043355652155	1.210320234562334	0.1698928857632863	0.6947953480486555	0.4399094156144656	0.1864971506362243	0.9216384301582942	0.8145921362332484	0.19063776361738388	1.1333456094807466	1.182966092179272	0.1855793494699407	0.9460317946858606	1.273247798947483	0.13767247160771473	1.0090818046746257	1.2684707567017908	0.201797176576883	1.2163059561690663	1.2269876241141153	0.28749787887038775	0.38649184252079927	-0.04178318729928726	0.27252751852592283	0.23303866833076742	-0.24057189094596762	0.2592788848727424	0.2372952924597974	-0.08363174528960397	0.439547561834712	0.38217238126834324	0.04551012168356494	0.49505429296080933	0.444115146517255	0.3047002519470088	0.2989238550892878	0.36265799814370603	0.38053763373566246	0.19266725394393933	0.3747478842559689	0.3967806575887973	0.18980460873203842	0.3882344180478512	0.4172250911252788	0.2224188056730935	0.40781420017383296	0.44923719999128003	0.13331739082197852	0.47065308376723325	0.0122516486642633	0.051078230595443384	0.5871608244940676	0.23228501830096743	0.07163723389436638	0.4848486637457831	0.47322066919240174	0.1262081317742725	0.4267857876804944	0.5636540086268661	0.10342882056895694	0.42204074691682575	0.5809269390940367	0.08856895853706198	0.4494942349212718	0.5783189831474739
51	0.864406779661017	0.3939262353103953	0.6669007397266216	0.45133893338034686	0.3878145169498837	0.8960479113328754	0.8103525560260785	0.3932088014384539	1.15897630616076	1.1921718355691333	0.35103572066511973	0.981546481776906	1.2941725849258041	0.41616257283610303	0.9914308386637863	1.2876146740319	0.36259819420182704	1.2827055533219414	1.2107392171255211	0.1716888595842606	0.689766676788052	0.43680963845173654	0.18649306087752582	0.9219562749338616	0.8145101157434164	0.1898304527163765	1.1288120035774756	1.1826307604154673	0.1853061809843759	0.9464366186718565	1.2733140456396177	0.13785189200683584	1.0095566771476376	1.2696386152189851	0.20164506880592725	1.2155464277885453	1.2269491291569898	0.28758142759759453	0.3852208145468545	-0.0412315605631475	0.2698271434575702	0.22824580619572749	-0.23696404149636535	0.2570416078951486	0.23689336975550584	-0.08345315634378317	0.4390765031674474	0.37730163737316347	0.04721639228134639	0.49068880164798573	0.4275951585008028	0.30794339899897927	0.292854251249655	0.33454526781635224	0.3672254711595188	0.18590732375172242	0.3520413055515408	0.3613901170299391	0.1792262177642834	0.3718552316744629	0.3848712625537802	0.21385986384078842	0.38361884960074544	0.4263078672561085	0.13218266872588738	0.4662946718176179	0.013786878529715805	0.048778220431495184	0.5924748474857657	0.22738769369222087	0.06691729212865832	0.49029082139698194	0.4699012732689636	0.11944185633352315	0.4274313580379498	0.5658246823240834	0.09738424881387366	0.4228021472037227	0.5817584144548937	0.07969808281833674	0.46386674553889734	0.5747725071038478
52	0.8813559322033898	0.3944567589014077	0.6666853398911246	0.45008944060224393	0.38902622946135823	0.8917625931856706	0.8112546225246131	0.39339569704439414	1.1595717949472018	1.1927024750463144	0.351039827862044	0.9814680545609424	1.2942314606005374	0.41710453857711965	0.9870260908687658	1.2871946955719573	0.3628223394831197	1.2833049314163267	1.2118091248650287	0.1731035181442144	0.6847947924684646	0.43514551522740186	0.18644602530511523	0.9215555351291392	0.8144178760356657	0.18869347139558582	1.1232336501942823	1.1824189665950868	0.18548357429315787	0.9471312779926414	1.2733878832994174	0.1376102753796133	1.0098726267914269	1.2705691744231522	0.2013856609399394	1.2131468278373192	1.2269277786453965	0.28809525208341513	0.38180931844827254	-0.03996214468770424	0.2662179611129858	0.22183277080376812	-0.23264705461066904	0.2535553488436616	0.23528472420394766	-0.08246279945517532	0.4389039010470712	0.37339985277957155	0.04859255006299281	0.4854138627770557	0.4151345868990485	0.30963858784756143	0.2848129045742507	0.30545725490839554	0.35526960469856894	0.18350127755197887	0.3320665572644503	0.3319577305695945	0.1727420234637232	0.35028819993901855	0.35534325829517804	0.20327869911815838	0.36011190016500105	0.40446941358850586	0.13104101811092286	0.4630591998779844	0.014948173109304436	0.04539158102493954	0.5982246365231202	0.22244637702784226	0.06379406051225184	0.4922740875023637	0.4639431165774339	0.11774360874157616	0.42913332003281723	0.5612394328667335	0.09486142554723753	0.4259838037120167	0.5791436341081886	0.07267501285558586	0.47948977879628235	0.5699081566202975
53	0.8983050847457628	0.3940237637546656	0.6670095182285259	0.4491715557907989	0.38951237159027313	0.890974278468013	0.8128173411209507	0.39353233777262736	1.1582290993547733	1.1926564214688724	0.35107314719730914	0.9813932864424749	1.294221234028206	0.41829235534677917	0.9802286302968737	1.2865628855143352	0.36312352786871066	1.2827870670840666	1.2131936023729084	0.17494455167549217	0.6790980442520974	0.4346756634132376	0.18640823820886526	0.9212485941321591	0.8143475849132863	0.18786913653107423	1.1197446806296207	1.1827736828220163	0.18663959681238257	0.9477609983299965	1.273433762168586	0.13737383335010991	1.010080972049093	1.271016558338351	0.2012128193436836	1.2080161907696088	1.2267855131212757	0.2891197244276162	0.37697538746498366	-0.03814193062263363	0.26195196097558154	0.21379535697740829	-0.2275672332333576	0.24886179965275687	0.23193737312599627	-0.08011094164251391	0.43895669133788634	0.3716274029147292	0.04894712342974453	0.48045383758488985	0.4095410541328579	0.30930800645042705	0.27614085965784363	0.2803615125864762	0.34459666944603884	0.18299789983916506	0.3161269365278787	0.31028988404793745	0.16934933536941357	0.32344685106903887	0.333321354083583	0.19237692060027767	0.3355515760802965	0.38371537519140275	0.12979802541563187	0.461880901517276	0.01549723285123833	0.040817291312718273	0.6032598989347421	0.217174434856826	0.061463869357689827	0.4929745396931656	0.4520974247070304	0.11930583842488966	0.4315982903940501	0.5457834194489929	0.09509855176155686	0.42874209296111687	0.5694216856496965	0.06885555557469808	0.48955889872417124	0.5608616993941784
54	0.9152542372881356	0.39378867609934926	0.665553725870911	0.4488558236855587	0.38948695259427857	0.8916531050683091	0.8138717663707168	0.3935461055415379	1.1540917094892813	1.1923444575671065	0.351156921272902	0.981478242278372	1.2941931303046643	0.41918063730805005	0.9751188687058668	1.286109309174082	0.3633417373634398	1.279929293134499	1.2141762353088423	0.17683788101495465	0.672706330286067	0.4343888353292177	0.18626646545911152	0.9213473523983016	0.8143078472345852	0.187704808971033	1.1196017948817087	1.1839466934863445	0.1885260932977909	0.948109670188841	1.2734468864640518	0.1372733844811597	1.0102488817478719	1.2711493989156888	0.20124831481517674	1.1999711257641037	1.2265211013753528	0.29004699616501045	0.3727363227478781	-0.03621582209246408	0.2572939404030884	0.20561583187617088	-0.22207294034717864	0.24360923408719187	0.22765956662940376	-0.07698074840586745	0.4389167036090392	0.371230718890355	0.048065793458461396	0.475932606028725	0.4086683769716584	0.3082355928245568	0.2679100081271455	0.2593942047708315	0.3364828202013892	0.18117774441298695	0.29811501077796704	0.295376937073658	0.16643546654660799	0.2912828152025677	0.3199527978056474	0.18222332929769638	0.3060908546210129	0.3645517287029812	0.12817785670122156	0.46214486394360044	0.015697646983267692	0.03613874791381372	0.606735410866431	0.21050081197351117	0.060296140659773345	0.49375598948256183	0.43329255090753543	0.12170055137504596	0.43187409190952886	0.5211313091927406	0.09713983539649257	0.42722129535818254	0.550722716954828	0.06772869215814828	0.4931527804184572	0.5434693375245442
55	0.9322033898305084	0.39424946011313416	0.6605809757458166	0.4490487045446654	0.38931168272602296	0.8920705314297386	0.8139181172360035	0.3931020670123631	1.1483720021583164	1.1919993132456175	0.35128072650420805	0.9817553862530325	1.2941687672280042	0.41958138153193736	0.973114833089189	1.2859642609735977	0.3634269524382221	1.2755459002626541	1.214439218128338	0.17788937254227732	0.667688188781796	0.4336939785877191	0.18600183520106414	0.9218129173971514	0.8142876458790078	0.18797720510703275	1.1212454867222332	1.185524321517846	0.1901688882859587	0.9482402232122368	1.273447465054148	0.13730099836468113	1.0103862589056802	1.2710975112858838	0.20147185711383858	1.190439208328439	1.226351232364754	0.2898585689376939	0.3707350591898689	-0.03447856570974775	0.25262994047580895	0.19929883607994386	-0.21675133709368735	0.2391829844292556	0.224296712556337	-0.07430783208621791	0.4381544131371335	0.3712082315422744	0.045996951842007465	0.47144662779800495	0.4082964929735903	0.30812074071364953	0.2616051901495184	0.24134295112682141	0.33277407049406343	0.17654130508336074	0.2734503709992936	0.28678707694558253	0.16237621180840783	0.257157543083828	0.31338642359530755	0.17317870768438653	0.272579933222797	0.3513465975086947	0.12623116458599948	0.4628650928377931	0.015662787936513524	0.03244112260553245	0.6083190290308075	0.2013695428172751	0.06050167272567482	0.4947174509058849	0.4106783376102858	0.12248143520524751	0.42549770047264335	0.4927824264110028	0.09893648231488585	0.42049553264264833	0.5253111644578785	0.0683089778030336	0.49229578713541355	0.5182169671838801
56	0.9491525423728814	0.3951592004868272	0.65366612715073	0.4492713698091477	0.38924129852629885	0.8921511469041608	0.8134837911302257	0.3919046282223451	1.1438346089878484	1.191776016935019	0.35129482335692963	0.9817347718442944	1.2941144994884262	0.4196826072530654	0.9728608433119962	1.2859746139974915	0.36344385617980896	1.2720166528830095	1.2142688066707186	0.17830467065502414	0.6672146756299132	0.4326982208813813	0.1859388709908995	0.9220986139400977	0.8142699562358219	0.1882792151595261	1.1225659023199976	1.186709150167993	0.19094776962485255	0.9482628964814677	1.2734538695932691	0.13745132766256385	1.010432577087661	1.2707010725496	0.20174935337656025	1.1821459877947558	1.2265012867015312	0.2882347831338149	0.3717295940024224	-0.03321052246365698	0.2483053421924042	0.19526637643490838	-0.21146481984541338	0.2363355630824488	0.22278099905934334	-0.07230509465082335	0.436042670824202	0.3712087135293448	0.04314984792802536	0.46720851494369087	0.40564164375586353	0.309533388136621	0.25792140857964113	0.22803555351647128	0.3345185748552437	0.17025984583144882	0.2463824505442063	0.2876653211393626	0.15810882197954007	0.23013528909044773	0.3143988080840616	0.16615669787544898	0.24495270321062765	0.3498717745703383	0.12438529883137729	0.4631939570064016	0.014921140496987992	0.029405687180095372	0.6087250638472101	0.1900060626465535	0.06124021331923718	0.49408071762600686	0.3882697413986399	0.11983850621240753	0.4106815629892626	0.4635632857570481	0.09896983479538145	0.41010580482028997	0.4967575208773987	0.07022224145480209	0.4871494973871272	0.49083331501868727
